<?xml version="1.0" encoding="utf-8"?>
<svg xmlns="http://www.w3.org/2000/svg" xmlns:xlink="http://www.w3.org/1999/xlink" style="margin: auto; background: none; display: block; shape-rendering: auto;" width="143px" height="143px" viewBox="0 0 100 100" preserveAspectRatio="xMidYMid">
<g transform="rotate(0 50 50)">
  <rect x="48" y="28.5" rx="2" ry="2.88" width="4" height="9" fill="#85a2b6">
    <animate attributeName="opacity" values="1;0" keyTimes="0;1" dur="0.5847953216374269s" begin="-0.5430242272347536s" repeatCount="indefinite"></animate>
  </rect>
</g><g transform="rotate(25.714285714285715 50 50)">
  <rect x="48" y="28.5" rx="2" ry="2.88" width="4" height="9" fill="#85a2b6">
    <animate attributeName="opacity" values="1;0" keyTimes="0;1" dur="0.5847953216374269s" begin="-0.5012531328320803s" repeatCount="indefinite"></animate>
  </rect>
</g><g transform="rotate(51.42857142857143 50 50)">
  <rect x="48" y="28.5" rx="2" ry="2.88" width="4" height="9" fill="#85a2b6">
    <animate attributeName="opacity" values="1;0" keyTimes="0;1" dur="0.5847953216374269s" begin="-0.4594820384294069s" repeatCount="indefinite"></animate>
  </rect>
</g><g transform="rotate(77.14285714285714 50 50)">
  <rect x="48" y="28.5" rx="2" ry="2.88" width="4" height="9" fill="#85a2b6">
    <animate attributeName="opacity" values="1;0" keyTimes="0;1" dur="0.5847953216374269s" begin="-0.41771094402673353s" repeatCount="indefinite"></animate>
  </rect>
</g><g transform="rotate(102.85714285714286 50 50)">
  <rect x="48" y="28.5" rx="2" ry="2.88" width="4" height="9" fill="#85a2b6">
    <animate attributeName="opacity" values="1;0" keyTimes="0;1" dur="0.5847953216374269s" begin="-0.3759398496240602s" repeatCount="indefinite"></animate>
  </rect>
</g><g transform="rotate(128.57142857142858 50 50)">
  <rect x="48" y="28.5" rx="2" ry="2.88" width="4" height="9" fill="#85a2b6">
    <animate attributeName="opacity" values="1;0" keyTimes="0;1" dur="0.5847953216374269s" begin="-0.33416875522138684s" repeatCount="indefinite"></animate>
  </rect>
</g><g transform="rotate(154.28571428571428 50 50)">
  <rect x="48" y="28.5" rx="2" ry="2.88" width="4" height="9" fill="#85a2b6">
    <animate attributeName="opacity" values="1;0" keyTimes="0;1" dur="0.5847953216374269s" begin="-0.2923976608187135s" repeatCount="indefinite"></animate>
  </rect>
</g><g transform="rotate(180 50 50)">
  <rect x="48" y="28.5" rx="2" ry="2.88" width="4" height="9" fill="#85a2b6">
    <animate attributeName="opacity" values="1;0" keyTimes="0;1" dur="0.5847953216374269s" begin="-0.25062656641604014s" repeatCount="indefinite"></animate>
  </rect>
</g><g transform="rotate(205.71428571428572 50 50)">
  <rect x="48" y="28.5" rx="2" ry="2.88" width="4" height="9" fill="#85a2b6">
    <animate attributeName="opacity" values="1;0" keyTimes="0;1" dur="0.5847953216374269s" begin="-0.20885547201336677s" repeatCount="indefinite"></animate>
  </rect>
</g><g transform="rotate(231.42857142857142 50 50)">
  <rect x="48" y="28.5" rx="2" ry="2.88" width="4" height="9" fill="#85a2b6">
    <animate attributeName="opacity" values="1;0" keyTimes="0;1" dur="0.5847953216374269s" begin="-0.16708437761069342s" repeatCount="indefinite"></animate>
  </rect>
</g><g transform="rotate(257.14285714285717 50 50)">
  <rect x="48" y="28.5" rx="2" ry="2.88" width="4" height="9" fill="#85a2b6">
    <animate attributeName="opacity" values="1;0" keyTimes="0;1" dur="0.5847953216374269s" begin="-0.12531328320802007s" repeatCount="indefinite"></animate>
  </rect>
</g><g transform="rotate(282.85714285714283 50 50)">
  <rect x="48" y="28.5" rx="2" ry="2.88" width="4" height="9" fill="#85a2b6">
    <animate attributeName="opacity" values="1;0" keyTimes="0;1" dur="0.5847953216374269s" begin="-0.08354218880534671s" repeatCount="indefinite"></animate>
  </rect>
</g><g transform="rotate(308.57142857142856 50 50)">
  <rect x="48" y="28.5" rx="2" ry="2.88" width="4" height="9" fill="#85a2b6">
    <animate attributeName="opacity" values="1;0" keyTimes="0;1" dur="0.5847953216374269s" begin="-0.041771094402673355s" repeatCount="indefinite"></animate>
  </rect>
</g><g transform="rotate(334.2857142857143 50 50)">
  <rect x="48" y="28.5" rx="2" ry="2.88" width="4" height="9" fill="#85a2b6">
    <animate attributeName="opacity" values="1;0" keyTimes="0;1" dur="0.5847953216374269s" begin="0s" repeatCount="indefinite"></animate>
  </rect>
</g>
<!-- [ldio] generated by https://loading.io/ --></svg>